<svg preserveAspectRatio="none" width="100%" height="100%" overflow="visible" style="display: block;" viewBox="0 0 32 32" fill="none" xmlns="http://www.w3.org/2000/svg">
<g id="solar:money-bag-bold">
<path id="Vector" fill-rule="evenodd" clip-rule="evenodd" d="M16.0693 1.66667H15.9307C14.732 1.66667 13.7333 1.66667 12.9413 1.77333C12.104 1.88533 11.348 2.13333 10.7413 2.74C10.1333 3.348 9.88533 4.104 9.77333 4.94C9.69733 5.50933 9.67467 6.868 9.66933 8.03333C6.97333 8.12267 5.35333 8.43733 4.22933 9.56267C2.66667 11.124 2.66667 13.6387 2.66667 18.6667C2.66667 23.6947 2.66667 26.2093 4.22933 27.7707C5.792 29.332 8.30533 29.3333 13.3333 29.3333H18.6667C23.6947 29.3333 26.2093 29.3333 27.7707 27.7707C29.332 26.208 29.3333 23.6947 29.3333 18.6667C29.3333 13.6387 29.3333 11.124 27.7707 9.56267C26.6467 8.43733 25.0267 8.12267 22.3307 8.03467C22.3253 6.868 22.304 5.50933 22.2267 4.94133C22.1147 4.104 21.8667 3.348 21.2587 2.74133C20.652 2.13333 19.896 1.88533 19.0587 1.77333C18.2667 1.66667 17.2667 1.66667 16.0693 1.66667ZM20.3307 8.00267C20.324 6.87333 20.3053 5.65867 20.2453 5.20667C20.1613 4.592 20.0187 4.328 19.8453 4.15467C19.672 3.98133 19.408 3.83867 18.792 3.75467C18.1493 3.66933 17.2853 3.66667 16 3.66667C14.7147 3.66667 13.8507 3.66933 13.2067 3.756C12.592 3.83867 12.328 3.98133 12.1547 4.156C11.9813 4.33067 11.8387 4.592 11.7547 5.20667C11.6947 5.66 11.6747 6.87333 11.6693 8.00267C12.192 8 12.7467 7.99911 13.3333 8H18.6667C19.2551 8 19.8098 8.00089 20.3307 8.00267ZM16 12.3333C16.2652 12.3333 16.5196 12.4387 16.7071 12.6262C16.8946 12.8138 17 13.0681 17 13.3333V13.3467C18.452 13.712 19.6667 14.8573 19.6667 16.444C19.6667 16.7092 19.5613 16.9636 19.3738 17.1511C19.1862 17.3386 18.9319 17.444 18.6667 17.444C18.4015 17.444 18.1471 17.3386 17.9596 17.1511C17.772 16.9636 17.6667 16.7092 17.6667 16.444C17.6667 15.932 17.0987 15.2227 16 15.2227C14.9013 15.2227 14.3333 15.932 14.3333 16.444C14.3333 16.956 14.9013 17.6667 16 17.6667C17.8467 17.6667 19.6667 18.9467 19.6667 20.8893C19.6667 22.476 18.452 23.62 17 23.9867V24C17 24.2652 16.8946 24.5196 16.7071 24.7071C16.5196 24.8946 16.2652 25 16 25C15.7348 25 15.4804 24.8946 15.2929 24.7071C15.1054 24.5196 15 24.2652 15 24V23.9867C13.548 23.6213 12.3333 22.476 12.3333 20.8893C12.3333 20.6241 12.4387 20.3698 12.6262 20.1822C12.8138 19.9947 13.0681 19.8893 13.3333 19.8893C13.5985 19.8893 13.8529 19.9947 14.0404 20.1822C14.228 20.3698 14.3333 20.6241 14.3333 20.8893C14.3333 21.4013 14.9013 22.1107 16 22.1107C17.0987 22.1107 17.6667 21.4013 17.6667 20.8893C17.6667 20.3773 17.0987 19.6667 16 19.6667C14.1533 19.6667 12.3333 18.3867 12.3333 16.444C12.3333 14.8573 13.548 13.712 15 13.3467V13.3333C15 13.0681 15.1054 12.8138 15.2929 12.6262C15.4804 12.4387 15.7348 12.3333 16 12.3333Z" fill="var(--fill-0, #021623)"/>
</g>
</svg>
