<svg preserveAspectRatio="none" width="100%" height="100%" overflow="visible" style="display: block;" viewBox="0 0 32 32" fill="none" xmlns="http://www.w3.org/2000/svg">
<g id="eos-icons:trusted-organization">
<path id="Vector" d="M25.3327 11.9999C25.3333 10.3931 24.919 8.81332 24.1301 7.41357C23.3411 6.01381 22.2041 4.84144 20.8292 4.00995C19.4543 3.17846 17.888 2.71601 16.2819 2.66736C14.6758 2.61872 13.0844 2.98553 11.6617 3.73229C10.239 4.47904 9.03313 5.58045 8.16089 6.9299C7.28865 8.27934 6.77957 9.83112 6.68292 11.435C6.58627 13.0389 6.90532 14.6406 7.6092 16.085C8.31307 17.5294 9.37793 18.7677 10.7007 19.6799L6.66602 26.6665L9.67402 26.7905L11.2847 29.3332L15.906 21.3279L15.9994 21.3332C16.046 21.3359 16.0607 21.3292 16.0927 21.3279L20.714 29.3332L22.3567 26.8452L25.3327 26.6665L21.298 19.6799C22.5428 18.8228 23.5605 17.6759 24.2634 16.3379C24.9663 15 25.3333 13.5112 25.3327 11.9999ZM9.33268 11.9999C9.33268 10.6813 9.72368 9.39238 10.4562 8.29606C11.1888 7.19973 12.23 6.34525 13.4481 5.84066C14.6663 5.33608 16.0067 5.20406 17.3 5.46129C18.5932 5.71853 19.781 6.35346 20.7134 7.28581C21.6457 8.21816 22.2807 9.40605 22.5379 10.6993C22.7952 11.9925 22.6631 13.3329 22.1585 14.5511C21.654 15.7693 20.7995 16.8104 19.7032 17.543C18.6068 18.2755 17.3179 18.6665 15.9994 18.6665C14.2312 18.6665 12.5355 17.9641 11.2853 16.7139C10.0351 15.4637 9.33268 13.768 9.33268 11.9999Z" fill="var(--fill-0, #021623)"/>
<path id="Vector_2" d="M16 16.001C18.2091 16.001 20 14.2101 20 12.001C20 9.79184 18.2091 8.00098 16 8.00098C13.7909 8.00098 12 9.79184 12 12.001C12 14.2101 13.7909 16.001 16 16.001Z" fill="var(--fill-0, #021623)"/>
</g>
</svg>
