<svg preserveAspectRatio="none" width="100%" height="100%" overflow="visible" style="display: block;" viewBox="0 0 32 32" fill="none" xmlns="http://www.w3.org/2000/svg">
<g id="ic:round-home-repair-service">
<path id="Vector" d="M22.666 21.334C21.9327 21.334 21.3327 20.734 21.3327 20.0007H10.666C10.666 20.734 10.066 21.334 9.33268 21.334C8.59935 21.334 7.99935 20.734 7.99935 20.0007H2.66602V24.0007C2.66602 25.4673 3.86602 26.6673 5.33268 26.6673H26.666C28.1327 26.6673 29.3327 25.4673 29.3327 24.0007V20.0007H23.9993C23.9993 20.734 23.3993 21.334 22.666 21.334ZM26.666 10.6673H22.666V8.00065C22.666 6.53398 21.466 5.33398 19.9993 5.33398H11.9993C10.5327 5.33398 9.33268 6.53398 9.33268 8.00065V10.6673H5.33268C3.86602 10.6673 2.66602 11.8673 2.66602 13.334V18.6673H7.99935V17.334C7.99935 16.6007 8.59935 16.0007 9.33268 16.0007C10.066 16.0007 10.666 16.6007 10.666 17.334V18.6673H21.3327V17.334C21.3327 16.6007 21.9327 16.0007 22.666 16.0007C23.3993 16.0007 23.9993 16.6007 23.9993 17.334V18.6673H29.3327V13.334C29.3327 11.8673 28.1327 10.6673 26.666 10.6673ZM19.9993 10.6673H11.9993V8.00065H19.9993V10.6673Z" fill="var(--fill-0, #021623)"/>
</g>
</svg>
