<svg preserveAspectRatio="none" width="100%" height="100%" overflow="visible" style="display: block;" viewBox="0 0 32 32" fill="none" xmlns="http://www.w3.org/2000/svg">
<g id="tabler:paint-filled">
<path id="Vector" d="M22.6673 2.66602C23.6876 2.66596 24.6693 3.05578 25.4117 3.75573C26.154 4.45567 26.6008 5.41282 26.6607 6.43135L26.6673 6.66602C27.7282 6.66602 28.7456 7.08744 29.4957 7.83759C30.2459 8.58773 30.6673 9.60515 30.6673 10.666C30.6674 12.7359 29.8652 14.7252 28.4294 16.216C26.9935 17.7068 25.0357 18.5831 22.9673 18.6607L22.6673 18.666H17.334L17.534 18.6727C18.1689 18.7204 18.7658 18.9937 19.2167 19.4432C19.6676 19.8926 19.9429 20.4886 19.9927 21.1233L20.0007 21.3327V26.666C20.0009 27.3388 19.7468 27.9868 19.2893 28.4801C18.8319 28.9734 18.2049 29.2756 17.534 29.326L17.334 29.3327H14.6673C13.9945 29.3329 13.3466 29.0788 12.8533 28.6214C12.3599 28.1639 12.0578 27.5369 12.0073 26.866L12.0007 26.666V21.3327C12.0004 20.6599 12.2545 20.0119 12.712 19.5186C13.1694 19.0253 13.7964 18.7231 14.4673 18.6727L14.6673 18.666V17.3327C14.6674 17.0061 14.7873 16.6909 15.0043 16.4469C15.2213 16.2028 15.5203 16.0469 15.8447 16.0087L16.0007 15.9993H22.6673C24.0818 15.9993 25.4384 15.4374 26.4386 14.4373C27.4387 13.4371 28.0007 12.0805 28.0007 10.666C28.0006 10.3394 27.8807 10.0242 27.6637 9.78019C27.4467 9.53614 27.1477 9.38022 26.8233 9.34202L26.6673 9.33268L26.6607 9.56735C26.6032 10.5455 26.1888 11.4685 25.496 12.1613C24.8031 12.8541 23.8801 13.2686 22.902 13.326L22.6673 13.3327H9.33398C8.3137 13.3327 7.33196 12.9429 6.58964 12.243C5.84731 11.543 5.40051 10.5859 5.34065 9.56735L5.33398 9.33268V6.66602C5.33393 5.64573 5.72375 4.664 6.4237 3.92167C7.12364 3.17934 8.08079 2.73254 9.09932 2.67268L9.33398 2.66602H22.6673Z" fill="var(--fill-0, #021623)"/>
</g>
</svg>
