<svg preserveAspectRatio="none" width="100%" height="100%" overflow="visible" style="display: block;" viewBox="0 0 32 32" fill="none" xmlns="http://www.w3.org/2000/svg">
<g id="material-symbols-light:tools-power-drill">
<path id="Vector" d="M9.25439 12.6668H15.2544C15.4019 12.6668 15.5371 12.6055 15.6597 12.4828C15.7833 12.3593 15.8451 12.2242 15.8451 12.0775C15.8451 11.9299 15.7833 11.7948 15.6597 11.6722C15.5371 11.5486 15.4019 11.4868 15.2544 11.4868H9.25439C9.10772 11.4868 8.97306 11.5486 8.85039 11.6722C8.72684 11.7948 8.66506 11.9299 8.66506 12.0775C8.66506 12.225 8.72684 12.3597 8.85039 12.4815C8.97395 12.6033 9.10861 12.665 9.25439 12.6668ZM9.25439 9.84549H15.2544C15.4019 9.84549 15.5371 9.78415 15.6597 9.66149C15.7833 9.53882 15.8451 9.40371 15.8451 9.25615C15.8451 9.1086 15.7833 8.97349 15.6597 8.85082C15.5362 8.72815 15.4011 8.66682 15.2544 8.66682H9.25439C9.10772 8.66682 8.97306 8.72815 8.85039 8.85082C8.72772 8.97349 8.66595 9.1086 8.66506 9.25615C8.66417 9.40371 8.72595 9.53882 8.85039 9.66149C8.97484 9.78415 9.1095 9.84593 9.25439 9.84682M21.0237 13.5895V7.74415H21.8451C22.4371 7.74415 22.9437 7.95482 23.3651 8.37615C23.7864 8.79749 23.9975 9.3046 23.9984 9.89749V10.0002H26.2544C26.4437 10.0002 26.6024 10.0642 26.7304 10.1922C26.8584 10.3202 26.9219 10.4788 26.9211 10.6682C26.9202 10.8575 26.8566 11.0157 26.7304 11.1428C26.6042 11.2699 26.4455 11.3335 26.2544 11.3335H23.9984V11.4362C23.9984 12.0282 23.7873 12.5348 23.3651 12.9562C22.9428 13.3775 22.4362 13.5886 21.8451 13.5895H21.0237ZM14.9211 18.1028H9.58772V15.7428H8.51173C7.41128 15.7428 6.46906 15.3517 5.68506 14.5695C4.90106 13.7873 4.50995 12.845 4.51172 11.7428V9.59082C4.51172 8.49126 4.90284 7.54993 5.68506 6.76682C6.46728 5.98371 7.4095 5.59171 8.51173 5.59082H17.8451C18.4371 5.59082 18.9437 5.80193 19.3651 6.22415C19.7864 6.64638 19.9975 7.1526 19.9984 7.74282V13.5895C19.9984 14.1824 19.7873 14.6895 19.3651 15.1108C18.9428 15.5322 18.4362 15.7433 17.8451 15.7442H14.9211V18.1028ZM9.05039 23.7428C8.6015 23.7428 8.21972 23.5859 7.90506 23.2722C7.59128 22.9584 7.43439 22.577 7.43439 22.1282V20.7442C7.43439 20.2953 7.59128 19.9135 7.90506 19.5988C8.21972 19.285 8.6015 19.1282 9.05039 19.1282H15.4597C15.9086 19.1282 16.2899 19.285 16.6037 19.5988C16.9184 19.9135 17.0757 20.2953 17.0757 20.7442V22.1282C17.0757 22.577 16.9184 22.9584 16.6037 23.2722C16.2899 23.5868 15.9086 23.7442 15.4597 23.7442L9.05039 23.7428Z" fill="var(--fill-0, #021623)"/>
</g>
</svg>
