<svg preserveAspectRatio="none" width="100%" height="100%" overflow="visible" style="display: block;" viewBox="0 0 32 32" fill="none" xmlns="http://www.w3.org/2000/svg">
<g id="ic:baseline-electrical-services">
<path id="Vector" d="M28.0007 18.6657C28.0007 17.9324 27.4007 17.3324 26.6673 17.3324H24.0007V19.999H26.6673C27.4007 19.999 28.0007 19.399 28.0007 18.6657ZM26.6673 22.6657H24.0007V25.3324H26.6673C27.4007 25.3324 28.0007 24.7324 28.0007 23.999C28.0007 23.2657 27.4007 22.6657 26.6673 22.6657ZM16.0007 18.6657H13.334V23.999H16.0007C16.0007 25.4657 17.2007 26.6657 18.6673 26.6657H22.6673V15.999H18.6673C17.2007 15.999 16.0007 17.199 16.0007 18.6657Z" fill="var(--fill-0, #021623)"/>
<path id="Vector_2" d="M6.66667 17.333C6.66667 15.8663 7.86667 14.6663 9.33333 14.6663H11.3333C13.9067 14.6663 16 12.573 16 9.99967C16 7.42634 13.9067 5.33301 11.3333 5.33301H6.66667C5.93333 5.33301 5.33333 5.93301 5.33333 6.66634C5.33333 7.39967 5.93333 7.99967 6.66667 7.99967H11.3333C12.44 7.99967 13.3333 8.89301 13.3333 9.99967C13.3333 11.1063 12.44 11.9997 11.3333 11.9997H9.33333C6.38667 11.9997 4 14.3863 4 17.333C4 20.2797 6.38667 22.6663 9.33333 22.6663H12V19.9997H9.33333C7.86667 19.9997 6.66667 18.7997 6.66667 17.333Z" fill="var(--fill-0, #021623)"/>
</g>
</svg>
