<svg preserveAspectRatio="none" width="100%" height="100%" overflow="visible" style="display: block;" viewBox="0 0 32 32" fill="none" xmlns="http://www.w3.org/2000/svg">
<g id="fluent:people-toolbox-20-filled">
<path id="Vector" d="M15.9984 9.20098C15.9984 10.5801 15.4506 11.9027 14.4754 12.8779C13.5002 13.8531 12.1776 14.401 10.7984 14.401C9.41931 14.401 8.09667 13.8531 7.12148 12.8779C6.14629 11.9027 5.59844 10.5801 5.59844 9.20098C5.59844 7.82185 6.14629 6.49921 7.12148 5.52402C8.09667 4.54883 9.41931 4.00098 10.7984 4.00098C12.1776 4.00098 13.5002 4.54883 14.4754 5.52402C15.4506 6.49921 15.9984 7.82185 15.9984 9.20098ZM23.1984 14.401C24.2593 14.401 25.2767 13.9795 26.0269 13.2294C26.777 12.4793 27.1984 11.4618 27.1984 10.401C27.1984 9.34011 26.777 8.3227 26.0269 7.57255C25.2767 6.8224 24.2593 6.40098 23.1984 6.40098C22.1376 6.40098 21.1202 6.8224 20.37 7.57255C19.6199 8.3227 19.1984 9.34011 19.1984 10.401C19.1984 11.4618 19.6199 12.4793 20.37 13.2294C21.1202 13.9795 22.1376 14.401 23.1984 14.401ZM17.9824 16.689C17.8363 16.9972 17.7307 17.3236 17.6656 17.6682C16.7476 17.8393 15.9184 18.3261 15.3217 19.0444C14.7249 19.7627 14.3983 20.6672 14.3984 21.601V25.1082C13.4144 25.4154 12.2272 25.601 10.7984 25.601C2.39844 25.601 2.39844 19.201 2.39844 19.201C2.39844 18.3523 2.73558 17.5384 3.3357 16.9382C3.93581 16.3381 4.74974 16.001 5.59844 16.001H15.9984C16.7472 16.001 17.4368 16.257 17.9824 16.689ZM19.1984 19.201V18.401C19.1984 17.7645 19.4513 17.154 19.9014 16.7039C20.3515 16.2538 20.9619 16.001 21.5984 16.001H24.7984C25.435 16.001 26.0454 16.2538 26.4955 16.7039C26.9456 17.154 27.1984 17.7645 27.1984 18.401V19.201H27.9984C28.635 19.201 29.2454 19.4538 29.6955 19.9039C30.1456 20.354 30.3984 20.9645 30.3984 21.601V24.001H27.1984V23.201C27.1984 22.9888 27.1142 22.7853 26.9641 22.6353C26.8141 22.4853 26.6106 22.401 26.3984 22.401C26.1863 22.401 25.9828 22.4853 25.8328 22.6353C25.6827 22.7853 25.5984 22.9888 25.5984 23.201V24.001H20.7984V23.201C20.7984 22.9888 20.7142 22.7853 20.5641 22.6353C20.4141 22.4853 20.2106 22.401 19.9984 22.401C19.7863 22.401 19.5828 22.4853 19.4328 22.6353C19.2827 22.7853 19.1984 22.9888 19.1984 23.201V24.001H15.9984V21.601C15.9984 20.9645 16.2513 20.354 16.7014 19.9039C17.1515 19.4538 17.7619 19.201 18.3984 19.201H19.1984ZM20.7984 18.401V19.201H25.5984V18.401C25.5984 18.1888 25.5142 17.9853 25.3641 17.8353C25.2141 17.6853 25.0106 17.601 24.7984 17.601H21.5984C21.3863 17.601 21.1828 17.6853 21.0328 17.8353C20.8827 17.9853 20.7984 18.1888 20.7984 18.401ZM27.1984 25.601H30.3984V28.001C30.3984 28.6375 30.1456 29.2479 29.6955 29.698C29.2454 30.1481 28.635 30.401 27.9984 30.401H18.3984C17.7619 30.401 17.1515 30.1481 16.7014 29.698C16.2513 29.2479 15.9984 28.6375 15.9984 28.001V25.601H19.1984V26.401C19.1984 26.6132 19.2827 26.8166 19.4328 26.9667C19.5828 27.1167 19.7863 27.201 19.9984 27.201C20.2106 27.201 20.4141 27.1167 20.5641 26.9667C20.7142 26.8166 20.7984 26.6132 20.7984 26.401V25.601H25.5984V26.401C25.5984 26.6132 25.6827 26.8166 25.8328 26.9667C25.9828 27.1167 26.1863 27.201 26.3984 27.201C26.6106 27.201 26.8141 27.1167 26.9641 26.9667C27.1142 26.8166 27.1984 26.6132 27.1984 26.401V25.601Z" fill="var(--fill-0, #021623)"/>
</g>
</svg>
