<svg preserveAspectRatio="none" width="100%" height="100%" overflow="visible" style="display: block;" viewBox="0 0 32 32" fill="none" xmlns="http://www.w3.org/2000/svg">
<g id="iconamoon:discount-fill">
<path id="Vector" fill-rule="evenodd" clip-rule="evenodd" d="M13.0202 3.99776C13.3954 3.57875 13.8547 3.24357 14.3682 3.0141C14.8817 2.78462 15.4378 2.66602 16.0002 2.66602C16.5626 2.66602 17.1187 2.78462 17.6322 3.0141C18.1457 3.24357 18.605 3.57875 18.9802 3.99776L19.9135 5.04042C20.0469 5.18963 20.2122 5.3069 20.3971 5.38353C20.5819 5.46016 20.7817 5.49419 20.9815 5.48309L22.3815 5.40576C22.9429 5.37493 23.5045 5.46279 24.0297 5.66362C24.5548 5.86446 25.0317 6.17374 25.4293 6.57131C25.8269 6.96888 26.1362 7.44579 26.337 7.97095C26.5378 8.4961 26.6257 9.05769 26.5949 9.61909L26.5175 11.0191C26.5066 11.2187 26.5408 11.4182 26.6174 11.6028C26.694 11.7875 26.8112 11.9525 26.9602 12.0858L28.0042 13.0191C28.4234 13.3943 28.7588 13.8537 28.9884 14.3673C29.218 14.8809 29.3367 15.4372 29.3367 15.9998C29.3367 16.5624 29.218 17.1186 28.9884 17.6322C28.7588 18.1458 28.4234 18.6052 28.0042 18.9804L26.9602 19.9138C26.811 20.0471 26.6937 20.2124 26.6171 20.3973C26.5405 20.5822 26.5064 20.7819 26.5175 20.9818L26.5949 22.3818C26.6257 22.9432 26.5378 23.5047 26.337 24.0299C26.1362 24.5551 25.8269 25.032 25.4293 25.4295C25.0317 25.8271 24.5548 26.1364 24.0297 26.3372C23.5045 26.5381 22.9429 26.6259 22.3815 26.5951L20.9815 26.5178C20.7819 26.5069 20.5824 26.541 20.3978 26.6176C20.2131 26.6942 20.0481 26.8114 19.9149 26.9604L18.9815 28.0044C18.6063 28.4237 18.1469 28.759 17.6333 28.9886C17.1197 29.2182 16.5635 29.3369 16.0009 29.3369C15.4383 29.3369 14.882 29.2182 14.3684 28.9886C13.8548 28.759 13.3954 28.4237 13.0202 28.0044L12.0869 26.9604C11.9535 26.8112 11.7882 26.6939 11.6033 26.6173C11.4184 26.5407 11.2187 26.5067 11.0189 26.5178L9.61886 26.5951C9.05746 26.6259 8.49587 26.5381 7.97071 26.3372C7.44556 26.1364 6.96865 25.8271 6.57108 25.4295C6.17351 25.032 5.86422 24.5551 5.66339 24.0299C5.46256 23.5047 5.37469 22.9432 5.40553 22.3818L5.48286 20.9818C5.49376 20.7822 5.45963 20.5826 5.383 20.398C5.30638 20.2134 5.18922 20.0483 5.04019 19.9151L3.99753 18.9818C3.5783 18.6066 3.24293 18.1472 3.01332 17.6336C2.78372 17.12 2.66504 16.5637 2.66504 16.0011C2.66504 15.4385 2.78372 14.8822 3.01332 14.3686C3.24293 13.855 3.5783 13.3956 3.99753 13.0204L5.04019 12.0871C5.1894 11.9537 5.30667 11.7884 5.3833 11.6036C5.45993 11.4187 5.49396 11.2189 5.48286 11.0191L5.40553 9.61909C5.37469 9.05769 5.46256 8.4961 5.66339 7.97095C5.86422 7.44579 6.17351 6.96888 6.57108 6.57131C6.96865 6.17374 7.44556 5.86446 7.97071 5.66362C8.49587 5.46279 9.05746 5.37493 9.61886 5.40576L11.0189 5.48309C11.2185 5.49399 11.418 5.45986 11.6026 5.38324C11.7872 5.30661 11.9523 5.18945 12.0855 5.04042L13.0202 3.99776ZM20.9429 11.0578C21.1928 11.3078 21.3332 11.6469 21.3332 12.0004C21.3332 12.354 21.1928 12.6931 20.9429 12.9431L12.9429 20.9431C12.6914 21.186 12.3546 21.3204 12.005 21.3173C11.6554 21.3143 11.321 21.1741 11.0738 20.9268C10.8266 20.6796 10.6863 20.3452 10.6833 19.9956C10.6803 19.646 10.8146 19.3092 11.0575 19.0578L19.0575 11.0578C19.3076 10.8078 19.6466 10.6674 20.0002 10.6674C20.3537 10.6674 20.6928 10.8078 20.9429 11.0578ZM12.6669 10.6671C12.1364 10.6671 11.6277 10.8778 11.2526 11.2529C10.8776 11.628 10.6669 12.1367 10.6669 12.6671V12.6804C10.6669 13.2109 10.8776 13.7196 11.2526 14.0946C11.6277 14.4697 12.1364 14.6804 12.6669 14.6804H12.6802C13.2106 14.6804 13.7193 14.4697 14.0944 14.0946C14.4695 13.7196 14.6802 13.2109 14.6802 12.6804V12.6671C14.6802 12.1367 14.4695 11.628 14.0944 11.2529C13.7193 10.8778 13.2106 10.6671 12.6802 10.6671H12.6669ZM19.3335 17.3338C18.8031 17.3338 18.2944 17.5445 17.9193 17.9195C17.5442 18.2946 17.3335 18.8033 17.3335 19.3338V19.3471C17.3335 19.8775 17.5442 20.3862 17.9193 20.7613C18.2944 21.1364 18.8031 21.3471 19.3335 21.3471H19.3469C19.8773 21.3471 20.386 21.1364 20.7611 20.7613C21.1361 20.3862 21.3469 19.8775 21.3469 19.3471V19.3338C21.3469 18.8033 21.1361 18.2946 20.7611 17.9195C20.386 17.5445 19.8773 17.3338 19.3469 17.3338H19.3335Z" fill="var(--fill-0, #021623)"/>
</g>
</svg>
