<svg preserveAspectRatio="none" width="100%" height="100%" overflow="visible" style="display: block;" viewBox="0 0 32 32" fill="none" xmlns="http://www.w3.org/2000/svg">
<g id="fluent:home-more-20-filled">
<path id="Vector" d="M17.6048 3.8144C17.1643 3.41861 16.593 3.19967 16.0008 3.19967C15.4086 3.19967 14.8373 3.41861 14.3968 3.8144L5.5968 11.7232C5.3461 11.9482 5.14559 12.2235 5.00831 12.5312C4.87103 12.8388 4.80005 13.1719 4.8 13.5088V24.8C4.8 25.4365 5.05286 26.047 5.50294 26.4971C5.95303 26.9471 6.56348 27.2 7.2 27.2H24.8C25.4365 27.2 26.047 26.9471 26.4971 26.4971C26.9471 26.047 27.2 25.4365 27.2 24.8V13.5088C27.2001 13.172 27.1294 12.839 26.9924 12.5314C26.8554 12.2237 26.6552 11.9484 26.4048 11.7232L17.6048 3.8144ZM11.2 17.6C10.7757 17.6 10.3687 17.4314 10.0686 17.1314C9.76857 16.8313 9.6 16.4243 9.6 16C9.6 15.5757 9.76857 15.1687 10.0686 14.8686C10.3687 14.5686 10.7757 14.4 11.2 14.4C11.6243 14.4 12.0313 14.5686 12.3314 14.8686C12.6314 15.1687 12.8 15.5757 12.8 16C12.8 16.4243 12.6314 16.8313 12.3314 17.1314C12.0313 17.4314 11.6243 17.6 11.2 17.6ZM17.6 16C17.6 16.4243 17.4314 16.8313 17.1314 17.1314C16.8313 17.4314 16.4243 17.6 16 17.6C15.5757 17.6 15.1687 17.4314 14.8686 17.1314C14.5686 16.8313 14.4 16.4243 14.4 16C14.4 15.5757 14.5686 15.1687 14.8686 14.8686C15.1687 14.5686 15.5757 14.4 16 14.4C16.4243 14.4 16.8313 14.5686 17.1314 14.8686C17.4314 15.1687 17.6 15.5757 17.6 16ZM20.8 17.6C20.3757 17.6 19.9687 17.4314 19.6686 17.1314C19.3686 16.8313 19.2 16.4243 19.2 16C19.2 15.5757 19.3686 15.1687 19.6686 14.8686C19.9687 14.5686 20.3757 14.4 20.8 14.4C21.2243 14.4 21.6313 14.5686 21.9314 14.8686C22.2314 15.1687 22.4 15.5757 22.4 16C22.4 16.4243 22.2314 16.8313 21.9314 17.1314C21.6313 17.4314 21.2243 17.6 20.8 17.6ZM12.8 20.8C12.8 21.2243 12.6314 21.6313 12.3314 21.9314C12.0313 22.2314 11.6243 22.4 11.2 22.4C10.7757 22.4 10.3687 22.2314 10.0686 21.9314C9.76857 21.6313 9.6 21.2243 9.6 20.8C9.6 20.3757 9.76857 19.9687 10.0686 19.6686C10.3687 19.3686 10.7757 19.2 11.2 19.2C11.6243 19.2 12.0313 19.3686 12.3314 19.6686C12.6314 19.9687 12.8 20.3757 12.8 20.8ZM16 22.4C15.5757 22.4 15.1687 22.2314 14.8686 21.9314C14.5686 21.6313 14.4 21.2243 14.4 20.8C14.4 20.3757 14.5686 19.9687 14.8686 19.6686C15.1687 19.3686 15.5757 19.2 16 19.2C16.4243 19.2 16.8313 19.3686 17.1314 19.6686C17.4314 19.9687 17.6 20.3757 17.6 20.8C17.6 21.2243 17.4314 21.6313 17.1314 21.9314C16.8313 22.2314 16.4243 22.4 16 22.4ZM22.4 20.8C22.4 21.2243 22.2314 21.6313 21.9314 21.9314C21.6313 22.2314 21.2243 22.4 20.8 22.4C20.3757 22.4 19.9687 22.2314 19.6686 21.9314C19.3686 21.6313 19.2 21.2243 19.2 20.8C19.2 20.3757 19.3686 19.9687 19.6686 19.6686C19.9687 19.3686 20.3757 19.2 20.8 19.2C21.2243 19.2 21.6313 19.3686 21.9314 19.6686C22.2314 19.9687 22.4 20.3757 22.4 20.8Z" fill="var(--fill-0, #021623)"/>
</g>
</svg>
