<svg preserveAspectRatio="none" width="100%" height="100%" overflow="visible" style="display: block;" viewBox="0 0 32 32" fill="none" xmlns="http://www.w3.org/2000/svg">
<g id="ic:baseline-plumbing">
<path id="Vector" d="M25.7071 6.57249L22.8805 3.74582C21.8405 2.70582 20.1471 2.70582 19.1071 3.74582L15.3338 7.51915L18.1605 10.3458L20.9871 7.51915L25.7071 12.2392C26.457 11.4869 26.8781 10.468 26.8781 9.40582C26.8781 8.34363 26.457 7.32476 25.7071 6.57249ZM7.32047 18.3592C8.10714 19.1458 9.3738 19.1458 10.1471 18.3592L13.4405 15.0658L10.6138 12.2258L7.32047 15.5192C6.5338 16.3058 6.5338 17.5725 7.32047 18.3592Z" fill="var(--fill-0, #021623)"/>
<path id="Vector_2" d="M20.0556 10.3458L19.1089 11.2925L18.1622 12.2391L13.9222 7.99914C13.1356 7.19914 11.8689 7.19914 11.0956 7.9858C10.9085 8.17059 10.76 8.39067 10.6586 8.63328C10.5573 8.87589 10.5051 9.1362 10.5051 9.39914C10.5051 9.66207 10.5573 9.92239 10.6586 10.165C10.76 10.4076 10.9085 10.6277 11.0956 10.8125L15.3356 15.0525L14.3889 15.9991L5.90891 24.4791C4.86891 25.5191 4.86891 27.2125 5.90891 28.2525C6.94891 29.2925 8.64224 29.2925 9.68224 28.2525L21.9356 15.9991C22.059 16.1226 22.2056 16.2205 22.3668 16.2873C22.5281 16.3541 22.701 16.3885 22.8756 16.3885C23.0501 16.3885 23.223 16.3541 23.3843 16.2873C23.5456 16.2205 23.6921 16.1226 23.8156 15.9991C23.939 15.8757 24.0369 15.7291 24.1037 15.5679C24.1705 15.4066 24.2049 15.2337 24.2049 15.0591C24.2049 14.8846 24.1705 14.7117 24.1037 14.5504C24.0369 14.3891 23.939 14.2426 23.8156 14.1191L20.0556 10.3458Z" fill="var(--fill-0, #021623)"/>
</g>
</svg>
