<svg preserveAspectRatio="none" width="100%" height="100%" overflow="visible" style="display: block;" viewBox="0 0 32 32" fill="none" xmlns="http://www.w3.org/2000/svg">
<g id="material-symbols:plumbing">
<path id="Vector" d="M25.7 12.2333L21 7.53333L18.1667 10.3333L15.3333 7.53333L19.1 3.73333C19.3667 3.46667 19.6667 3.27244 20 3.15067C20.3333 3.02889 20.6667 2.96756 21 2.96667C21.3556 2.96667 21.6947 3.028 22.0173 3.15067C22.34 3.27333 22.6231 3.46756 22.8667 3.73333L25.7 6.56667C26.1 6.94444 26.3947 7.38356 26.584 7.884C26.7733 8.38444 26.8676 8.88978 26.8667 9.4C26.8658 9.91022 26.7716 10.4102 26.584 10.9C26.3964 11.3898 26.1018 11.8342 25.7 12.2333ZM7.33333 18.3667C6.93333 17.9667 6.73333 17.4947 6.73333 16.9507C6.73333 16.4067 6.93333 15.9342 7.33333 15.5333L10.6 12.2333L13.4333 15.0667L10.1333 18.3667C9.75556 18.7667 9.29467 18.9667 8.75067 18.9667C8.20667 18.9667 7.73422 18.7667 7.33333 18.3667ZM5.9 28.2667C5.65556 28 5.46667 27.7058 5.33333 27.384C5.2 27.0622 5.13333 26.7231 5.13333 26.3667C5.13333 26.0102 5.19467 25.6716 5.31733 25.3507C5.44 25.0298 5.63422 24.7351 5.9 24.4667L15.3333 15.0667L11.1 10.8C10.7 10.4222 10.5 9.96133 10.5 9.41733C10.5 8.87333 10.7 8.40089 11.1 8C11.4778 7.6 11.9444 7.4 12.5 7.4C13.0556 7.4 13.5333 7.6 13.9333 8L18.1667 12.2333L20.0667 10.3333L23.8 14.1333C24.0667 14.4 24.2 14.7111 24.2 15.0667C24.2 15.4222 24.0667 15.7333 23.8 16C23.5333 16.2667 23.2222 16.4 22.8667 16.4C22.5111 16.4 22.2 16.2667 21.9333 16L9.66667 28.2667C9.4 28.5333 9.10533 28.728 8.78267 28.8507C8.46 28.9733 8.13244 29.0342 7.8 29.0333C7.46756 29.0324 7.13422 28.9658 6.8 28.8333C6.46578 28.7009 6.16578 28.512 5.9 28.2667Z" fill="var(--fill-0, #021623)"/>
</g>
</svg>
