<svg preserveAspectRatio="none" width="100%" height="100%" overflow="visible" style="display: block;" viewBox="0 0 32 32" fill="none" xmlns="http://www.w3.org/2000/svg">
<g id="material-symbols:window">
<path id="Vector" d="M17.3333 17.3333H28V25.3333C28 26.0667 27.7391 26.6947 27.2173 27.2173C26.6956 27.74 26.0676 28.0009 25.3333 28H17.3333V17.3333ZM17.3333 14.6667V4H25.3333C26.0667 4 26.6947 4.26133 27.2173 4.784C27.74 5.30667 28.0009 5.93422 28 6.66667V14.6667H17.3333ZM14.6667 14.6667H4V6.66667C4 5.93333 4.26133 5.30578 4.784 4.784C5.30667 4.26222 5.93422 4.00089 6.66667 4H14.6667V14.6667ZM14.6667 17.3333V28H6.66667C5.93333 28 5.30578 27.7391 4.784 27.2173C4.26222 26.6956 4.00089 26.0676 4 25.3333V17.3333H14.6667Z" fill="var(--fill-0, #021623)"/>
</g>
</svg>
